<svg height="1500" version="1.1" width="2000" xmlns="http://www.w3.org/2000/svg" preserveAspectRatio="xMidYMid meet" viewBox="0 0 600 442" xmlns:xlink="http://www.w3.org/1999/xlink"><desc>Created with Snap</desc><defs/><g id="root" contentwidth="365.2" contentheight="71.64">
          <rect class="background" height="2000%" width="2000%" y="-1000%" x="-1000%" style="" fill="rgba(0,0,0,0)"/>
          <g class="content" id="content" transform="matrix(1,0,0,1,109.86,252.52)">
            <g class="icon">
            </g>
            <g id="icon_name_and_slogan_gap">
            </g>
            <g class="name_and_slogan" id="name_and_slogan_id">
              <g class="name"><g id="nameDefaultGroup"><path d="M33.800000000000004 -67.34Q43.03 -67.34 49.53 -64.22Q55.9 -61.230000000000004 59.800000000000004 -56.160000000000004Q63.830000000000005 -51.22 65.65 -44.85Q67.34 -38.35 67.34 -31.590000000000003L67.34 -31.590000000000003Q67.34 -24.31 65.52 -17.81Q63.57 -11.309999999999999 59.410000000000004 -6.5Q55.38 -1.56 48.75 1.1700000000000002Q42.25 4.03 33.15 4.03L33.15 4.03L7.54 4.03L7.54 -67.34L33.800000000000004 -67.34M20.150000000000002 -7.15L32.37 -7.15Q42.9 -7.15 48.75 -13.39Q54.6 -19.759999999999998 54.6 -31.72L54.6 -31.72Q54.6 -36.4 53.43000000000001 -40.82Q52.260000000000005 -45.239999999999995 49.660000000000004 -48.62Q46.93000000000001 -52 42.77 -54.080000000000005Q38.480000000000004 -56.160000000000004 32.24 -56.160000000000004L32.24 -56.160000000000004L20.150000000000002 -56.160000000000004L20.150000000000002 -7.15" style="" fill="#3a57df" id="name-lt-0"/><path d="M101.54 -43.2L71.54 -43.2L71.54 -51.8L114.74000000000001 -51.8L114.74000000000001 -44.7L83.24000000000001 -5.6L115.04 -5.6L115.04 3.1L70.14 3.1L70.14 -4.2L101.54 -43.2" style="" fill="#e5316b" id="name-lt-1"/><path d="M141.04000000000002 -51.8Q148.14000000000001 -51.8 153.14000000000001 -49.4Q158.04000000000002 -47.1 161.04000000000002 -43.2Q164.14000000000001 -39.4 165.54000000000002 -34.5Q166.84 -29.5 166.84 -24.3L166.84 -24.3Q166.84 -18.7 165.44 -13.7Q163.94 -8.7 160.74 -5Q157.64000000000001 -1.2 152.54000000000002 0.9Q147.54000000000002 3.1 140.54000000000002 3.1L140.54000000000002 3.1L120.84 3.1L120.84 -51.8L141.04000000000002 -51.8M130.54000000000002 -5.5L139.94 -5.5Q148.04000000000002 -5.5 152.54000000000002 -10.3Q157.04000000000002 -15.2 157.04000000000002 -24.4L157.04000000000002 -24.4Q157.04000000000002 -28 156.14000000000001 -31.4Q155.24 -34.8 153.24 -37.4Q151.14000000000001 -40 147.94 -41.6Q144.64000000000001 -43.2 139.84 -43.2L139.84 -43.2L130.54000000000002 -43.2L130.54000000000002 -5.5" style="" fill="#095209" id="name-lt-2"/><path d="M170.84 -24.4Q170.84 -30.6 172.54 -35.9Q174.34 -41.1 177.64000000000001 -44.9Q180.94 -48.7 185.74 -50.9Q190.44 -53.1 196.44 -53.1L196.44 -53.1Q201.44 -53.1 205.14 -51.8Q208.84 -50.6 211.54000000000002 -48.5Q214.24 -46.4 216.04000000000002 -43.6Q217.84 -40.9 219.14 -37.9L219.14 -37.9L209.14 -36.4Q207.04000000000002 -40.5 203.94 -42.5Q200.84 -44.4 196.44 -44.4L196.44 -44.4Q192.94 -44.4 189.94 -43Q187.04 -41.5 184.94 -38.9Q182.94 -36.3 181.74 -32.6Q180.64000000000001 -28.9 180.64000000000001 -24.4L180.64000000000001 -24.4Q180.64000000000001 -19.8 181.74 -16.1Q182.94 -12.4 184.94 -9.8Q187.04 -7.1 189.84 -5.7Q192.64000000000001 -4.2 196.04 -4.2L196.04 -4.2Q198.84 -4.2 201.34 -5.2Q203.74 -6.1 205.64 -7.7Q207.54000000000002 -9.2 208.74 -11.3Q210.04000000000002 -13.5 210.54000000000002 -15.8L210.54000000000002 -15.8L210.54000000000002 -19.2L196.74 -19.2L196.74 -27.8L220.24 -27.8L220.24 3.1L211.74 3.1L211.74 -5.1Q209.44 -0.8 205.04000000000002 1.8Q200.74 4.3 194.74 4.3L194.74 4.3Q189.94 4.3 185.64000000000001 2.4Q181.24 0.4 177.94 -3.2Q174.64000000000001 -6.9 172.74 -12.2Q170.84 -17.6 170.84 -24.4L170.84 -24.4" style="" fill="#7819a8" id="name-lt-3"/><path d="M223.34 -6.3Q223.34 -13.8 230.24 -17.8Q237.04000000000002 -21.8 250.54000000000002 -23.3L250.54000000000002 -23.3L250.54000000000002 -24.7Q250.54000000000002 -25.8 250.14000000000001 -26.9Q249.64000000000001 -27.9 248.74 -28.8Q247.74 -29.6 246.14000000000001 -30.1Q244.54000000000002 -30.6 242.34 -30.6L242.34 -30.6Q239.64000000000001 -30.6 237.04000000000002 -29.6Q234.54000000000002 -28.5 233.14000000000001 -25.6L233.14000000000001 -25.6L224.34 -26.7Q226.44 -32 231.04000000000002 -35.2Q235.74 -38.4 242.84 -38.4L242.84 -38.4Q251.44 -38.4 255.74 -34.7Q260.04 -31 260.04 -24.4L260.04 -24.4L260.04 -5Q260.04 -3.6 260.94 -3.1Q261.84000000000003 -2.7 264.14 -2.9L264.14 -2.9L264.14 3.1Q262.64 3.5 261.14 3.6Q259.64 3.8 258.14 3.8L258.14 3.8Q257.34000000000003 3.8 256.34000000000003 3.7Q255.34 3.5 254.44 3.2Q253.54000000000002 2.9 252.74 2.4Q252.04000000000002 1.9 251.64000000000001 1.2L251.64000000000001 1.2Q251.44 0.9 251.34 0Q251.14000000000001 -0.9 251.04000000000002 -1.2L251.04000000000002 -1.2Q248.54000000000002 1.3 244.74 2.7Q240.94 4.2 236.64000000000001 4.2L236.64000000000001 4.2Q234.24 4.2 231.94 3.6Q229.54000000000002 3 227.64000000000001 1.7Q225.74 0.4 224.54000000000002 -1.6Q223.34 -3.5 223.34 -6.3L223.34 -6.3M232.94 -7.4Q232.94 -5.3 234.44 -4.4Q236.04000000000002 -3.5 238.84 -3.5L238.84 -3.5Q242.14000000000001 -3.5 245.14000000000001 -4.6Q248.14000000000001 -5.8 250.54000000000002 -7.6L250.54000000000002 -7.6L250.54000000000002 -15.6Q247.14000000000001 -15.2 243.94 -14.6Q240.74 -14 238.34 -13.1Q235.84 -12.2 234.34 -10.8Q232.94 -9.4 232.94 -7.4L232.94 -7.4" style="" fill="#b76c2b" id="name-lt-4"/><path d="M278.14 -37.2L278.14 -33Q280.74 -35.5 283.94 -36.9Q287.14 -38.4 290.64 -38.4L290.64 -38.4Q295.14 -38.4 298.03999999999996 -36.9Q300.84 -35.4 302.84 -31.7L302.84 -31.7L302.94 -31.7Q305.53999999999996 -34.7 309.14 -36.5Q312.74 -38.4 316.34 -38.4L316.34 -38.4Q322.74 -38.4 326.64 -34.8Q330.44 -31.2 330.44 -23.8L330.44 -23.8L330.44 3.1L320.84 3.1L320.84 -22.4Q320.84 -26.4 318.74 -28.5Q316.53999999999996 -30.6 313.24 -30.6L313.24 -30.6Q310.84 -30.6 308.44 -29.2Q305.94 -27.7 304.34 -25.6L304.34 -25.6L304.34 3.1L294.84 3.1L294.84 -22Q294.84 -26.3 292.74 -28.4Q290.64 -30.6 287.64 -30.6L287.64 -30.6Q284.94 -30.6 282.53999999999996 -29.3Q280.24 -28.1 278.14 -26L278.14 -26L278.14 3.1L268.64 3.1L268.64 -37.2L278.14 -37.2" style="" fill="#3a57df" id="name-lt-5"/><path d="M333.64 -16.9Q333.64 -21.2 334.84 -25.1Q336.04 -28.9 338.54 -31.9Q340.94 -34.8 344.64 -36.6Q348.34 -38.4 353.24 -38.4L353.24 -38.4Q358.34 -38.4 361.94 -36.7Q365.64 -35 368.04 -32.1Q370.44 -29.3 371.54 -25.6Q372.74 -21.8 372.74 -17.6L372.74 -17.6L372.74 -13.6L343.14 -13.6Q343.14 -11.5 343.84 -9.6Q344.54 -7.8 345.94 -6.4Q347.24 -5 349.34 -4.2Q351.34 -3.4 353.84 -3.4L353.84 -3.4Q357.54 -3.4 359.94 -4.8Q362.34 -6.2 363.74 -8.6L363.74 -8.6L372.44 -7.2Q369.94 -1.4 365.44 1.4Q360.94 4.3 353.74 4.3L353.74 4.3Q348.74 4.3 344.94 2.7Q341.14 1 338.64 -1.8Q336.24 -4.7 334.94 -8.6Q333.64 -12.5 333.64 -16.9L333.64 -16.9M363.24 -20.9Q363.24 -22.5 362.54 -24.2Q361.94 -25.9 360.74 -27.4Q359.54 -28.8 357.64 -29.7Q355.74 -30.6 353.24 -30.6L353.24 -30.6Q350.74 -30.6 348.84 -29.7Q347.04 -28.8 345.74 -27.4Q344.44 -26 343.84 -24.3Q343.14 -22.5 343.14 -20.9L343.14 -20.9L363.24 -20.9" style="" fill="#e5316b" id="name-lt-6"/></g></g>
              <g class="slogan"><g id="sloganDefaultGroup"/></g>
            </g>
            <g class="border">
            </g>
          </g>
          
          <defs id="defs">
            <mask xmlns="http://www.w3.org/2000/svg" id="mask">
                <rect id="showAll" fill="white" x="0" y="0" width="0" height="0"/>
                <rect id="hideNameBg" fill="black" x="0" y="0" width="0" height="0" stroke-width="2" stroke="black"/>
                <rect id="hideSloganBg" fill="black" x="0" y="0" width="0" height="0" stroke-width="2" stroke="black"/>
            </mask>
          </defs>
          
        </g>
        </svg>